<svg width="125" height="95" viewBox="0 0 125 95" fill="none" xmlns="http://www.w3.org/2000/svg">
<circle cx="62.5" cy="48" r="33" fill="white"/>
<g filter="url(#filter0_d_5766_2339)">
<path d="M72.1127 43.59L57.9125 35.4462C57.1441 35.0025 56.272 34.77 55.3847 34.7725C54.4974 34.7749 53.6265 35.0121 52.8606 35.4601C52.0947 35.908 51.4609 36.5506 51.0237 37.3228C50.5865 38.0949 50.3615 38.9689 50.3714 39.8562V56.2026C50.3714 57.5359 50.9011 58.8147 51.8439 59.7575C52.7867 60.7003 54.0655 61.23 55.3988 61.23C56.2815 61.2285 57.1482 60.9953 57.9125 60.5538L72.1127 52.41C72.8757 51.9684 73.5092 51.3339 73.9496 50.5702C74.39 49.8065 74.6218 48.9404 74.6218 48.0588C74.6218 47.1772 74.39 46.3111 73.9496 45.5474C73.5092 44.7837 72.8757 44.1492 72.1127 43.7076V43.59ZM70.6427 49.7493L56.4425 58.0107C56.1242 58.1911 55.7646 58.2859 55.3988 58.2859C55.033 58.2859 54.6734 58.1911 54.3551 58.0107C54.0377 57.8274 53.7742 57.5639 53.591 57.2465C53.4078 56.9291 53.3113 56.5691 53.3114 56.2026V39.7974C53.3113 39.4309 53.4078 39.0709 53.591 38.7535C53.7742 38.4361 54.0377 38.1725 54.3551 37.9893C54.6747 37.8116 55.0332 37.7157 55.3988 37.71C55.7642 37.7175 56.1223 37.8133 56.4425 37.9893L70.6427 46.1919C70.9602 46.375 71.2239 46.6386 71.4072 46.956C71.5905 47.2734 71.687 47.6334 71.687 48C71.687 48.3665 71.5905 48.7266 71.4072 49.044C71.2239 49.3614 70.9602 49.6249 70.6427 49.8081V49.7493Z" fill="#1769AA"/>
</g>
<defs>
<filter id="filter0_d_5766_2339" x="0.859375" y="0.360107" width="123.279" height="123.28" filterUnits="userSpaceOnUse" color-interpolation-filters="sRGB">
<feFlood flood-opacity="0" result="BackgroundImageFix"/>
<feColorMatrix in="SourceAlpha" type="matrix" values="0 0 0 0 0 0 0 0 0 0 0 0 0 0 0 0 0 0 127 0" result="hardAlpha"/>
<feOffset dy="14"/>
<feGaussianBlur stdDeviation="22"/>
<feColorMatrix type="matrix" values="0 0 0 0 0 0 0 0 0 0 0 0 0 0 0 0 0 0 0.15 0"/>
<feBlend mode="normal" in2="BackgroundImageFix" result="effect1_dropShadow_5766_2339"/>
<feBlend mode="normal" in="SourceGraphic" in2="effect1_dropShadow_5766_2339" result="shape"/>
</filter>
</defs>
</svg>
